<?xml version="1.0" encoding="utf-8"?>
<!-- Generator: Adobe Illustrator 24.1.2, SVG Export Plug-In . SVG Version: 6.00 Build 0)  -->
<svg version="1.1" id="Layer_1" xmlns="http://www.w3.org/2000/svg" xmlns:xlink="http://www.w3.org/1999/xlink" x="0px" y="0px"
	 viewBox="0 0 124 72" style="enable-background:new 0 0 124 72;" xml:space="preserve">
<style type="text/css">
	.st0{fill:#FFFFFF;}
	.st1{font-family:'Lato-Black';}
	.st2{font-size:12px;}
	.st3{fill:none;stroke:#FFFFFF;stroke-miterlimit:10;}
	.st4{fill:none;stroke:#FFFFFF;stroke-miterlimit:10;stroke-dasharray:5.7413,5.7413;}
</style>
<text transform="matrix(1 0 0 1 0.4263 10.1519)" class="st0 st1 st2">A</text>
<text transform="matrix(1 0 0 1 116.0806 68.9951)" class="st0 st1 st2">B</text>
<path d="M109,54"/>
<g>
	<g>
		<path class="st3" d="M14.77,8.92c0.54,0.79,1.12,1.6,1.73,2.45"/>
		<path class="st4" d="M19.98,15.94c6.98,8.78,17.21,19.35,31.52,28.56c20.46,13.17,40.46,17.88,53.82,19.64"/>
		<path class="st3" d="M108.18,64.48c1.05,0.11,2.04,0.21,2.98,0.29"/>
		<g>
			<path class="st0" d="M12.7,10.52c-0.83-1.2-0.52-2.84,0.67-3.66s2.84-0.52,3.66,0.67c0.83,1.2,0.52,2.84-0.67,3.66
				C15.16,12.01,13.52,11.71,12.7,10.52z"/>
		</g>
		<g>
			<path class="st0" d="M110.8,67.36c1.45,0.13,2.72-0.95,2.85-2.39s-0.95-2.72-2.39-2.85c-1.45-0.13-2.72,0.95-2.85,2.39
				C108.28,65.96,109.36,67.24,110.8,67.36z"/>
		</g>
	</g>
</g>
</svg>
